Coordinates
version=1
nRows=4
nColumns=107
inDegrees=yes

Units are S.I. units (second, meters, Newtons, ...)
If the header above contains a line with 'inDegrees', this indicates whether rotational values are in degrees (yes) or radians (no).

endheader
time	sternoclavicular_r2	sternoclavicular_r3	unrotscap_r3	unrotscap_r2	acromioclavicular_r2	acromioclavicular_r3	acromioclavicular_r1	unrothum_r1	unrothum_r3	unrothum_r2	elv_angle	shoulder_elv	shoulder1_r2	shoulder_rot	elbow_flexion	pro_sup	deviation	flexion	proximal_distal_r1	proximal_distal_r3	cmc_flexion	cmc_abduction	mp_flexion	ip_flexion	mcp2_flexion	mcp2_abduction	pm2_flexion	md2_flexion	mcp3_flexion	mcp3_abduction	pm3_flexion	md3_flexion	mcp4_flexion	mcp4_abduction	pm4_flexion	md4_flexion	mcp5_flexion	mcp5_abduction	pm5_flexion	md5_flexion	bicpt_tx	bicpt_ty	bicpt_tz	bicpt2_tx	bicpt2_ty	bicpt2_tz	ptpt_tx	ptpt_ty	ptpt_tz	FCUpt_tx	FCUpt_ty	FCUpt_tz	EDCpt_tx	EDCpt_ty	EDCpt_tz	APLpt_tx	APLpt_ty	APLpt_tz	FPLpt_tx	FPLpt_ty	FPLpt_tz	FPLpt2_tx	FPLpt2_ty	FPLpt2_tz	PEC1pt2_tx	PEC1pt2_ty	PEC1pt2_tz	PEC1pt3_tx	PEC1pt3_ty	PEC1pt3_tz	PEC2pt2_tx	PEC2pt2_ty	PEC2pt2_tz	PEC2pt3_tx	PEC2pt3_ty	PEC2pt3_tz	PEC3pt2_tx	PEC3pt2_ty	PEC3pt2_tz	PEC3pt3_tx	PEC3pt3_ty	PEC3pt3_tz	DELT2pt2a_tx	DELT2pt2a_ty	DELT2pt2a_tz	DELT2pt2_tx	DELT2pt2_ty	DELT2pt2_tz	LAT1pt2_tx	LAT1pt2_ty	LAT1pt2_tz	LAT1pt3_tx	LAT1pt3_ty	LAT1pt3_tz	LAT2pt2_tx	LAT2pt2_ty	LAT2pt2_tz	LAT2pt3_tx	LAT2pt3_ty	LAT2pt3_tz	LAT3pt2_tx	LAT3pt2_ty	LAT3pt2_tz	LAT3pt3_tx	LAT3pt3_ty	LAT3pt3_tz
      0.00000000	     -0.32493752	      0.13762820	     -0.13762820	      0.32493752	     -0.06579324	      0.53171780	      0.23900349	     -0.23900349	     -0.53171780	      0.06579324	     99.07388693	     76.93184507	     -1.72916553	    -22.09957572	     28.88317362	     44.89153673	      0.15607400	     -0.05195172	      0.19187653	     -0.02597586	     33.38374447	    -18.84887815	      7.20099936	     11.34746518	     -4.38535258	      9.77247499	     13.53036859	    -27.12502820	     -5.26967929	     -1.13769821	      6.09623383	     10.39333442	    -10.40580677	     -4.37685406	     -9.97705930	     21.20057852	    -27.17317417	    -13.68196777	      4.29258056	      5.02517671	      0.00085537	     -0.03091045	     -0.00483323	      0.01655620	     -0.01804626	     -0.00693109	      0.00423302	     -0.06704481	     -0.00366625	      0.00827640	     -0.18338991	     -0.00041214	     -0.00538697	      0.00158291	      0.00010483	      0.00005090	      0.00002036	      0.00010179	      0.00006515	      0.00019544	      0.00010994	     -0.00001199	     -0.00021544	     -0.00025853	      0.00252166	      0.00884717	      0.00615455	     -0.00824881	      0.01991682	     -0.01889106	      0.00252166	      0.00884717	      0.00615455	      0.00055562	      0.01846366	     -0.00970197	      0.00397679	      0.00491980	      0.01603773	      0.00000000	      0.00791632	      0.00000000	     -0.00722305	     -0.03337990	     -0.00652812	      0.01495834	     -0.00049728	     -0.00406129	     -0.00089754	      0.01504446	     -0.00615455	      0.00247892	      0.02171189	     -0.01795078	     -0.00602633	      0.01303568	     -0.00551345	     -0.01256555	      0.02752453	     -0.03081550	     -0.02359245	      0.01457432	     -0.00739401	     -0.01564282	      0.03179852	     -0.03850869
      0.03333333	     -0.32622391	      0.13817305	     -0.13817305	      0.32622391	     -0.06605371	      0.53382282	      0.23994968	     -0.23994968	     -0.53382282	      0.06605371	     98.82704930	     77.23641128	     -1.72485740	    -20.63197622	     28.76463538	     43.46987103	      0.15743806	     -0.05800364	      0.19337794	     -0.02900182	     33.46609335	    -19.14802089	      6.99672479	     10.55551921	     -4.93187661	      9.46746415	     14.72856865	    -27.40102803	     -5.63685873	     -1.28459788	      6.31804146	     11.03160244	    -10.19885808	     -4.40168716	    -10.70054594	     22.48910187	    -27.22620196	    -13.65022392	      4.32007032	      5.05181634	      0.00085144	     -0.03089687	     -0.00483104	      0.01656712	     -0.01801405	     -0.00709118	      0.00433807	     -0.06697689	     -0.00355173	      0.00813144	     -0.18342117	     -0.00040652	     -0.00521637	      0.00152325	      0.00011825	      0.00005653	      0.00002261	      0.00011306	      0.00007236	      0.00021708	      0.00012211	     -0.00001204	     -0.00021445	     -0.00025734	      0.00253164	      0.00888219	      0.00617892	     -0.00828147	      0.01999567	     -0.01896585	      0.00253164	      0.00888219	      0.00617892	      0.00055782	      0.01853675	     -0.00974038	      0.00398821	      0.00493928	      0.01606525	      0.00000000	      0.00797958	      0.00000000	     -0.00725165	     -0.03351205	     -0.00658063	      0.01413830	     -0.00045142	     -0.00352068	     -0.00090109	      0.01510402	     -0.00617892	      0.00248873	      0.02179785	     -0.01802184	     -0.00605019	      0.01308729	     -0.00553528	     -0.01261529	      0.02763349	     -0.03093750	     -0.02368585	      0.01463202	     -0.00742328	     -0.01570475	      0.03192441	     -0.03866115
      0.06666667	     -0.32619584	      0.13816116	     -0.13816116	      0.32619584	     -0.06604802	      0.53377689	      0.23992904	     -0.23992904	     -0.53377689	      0.06604802	     98.83289253	     77.22976505	     -1.72495938	    -20.62758392	     28.76668744	     43.47142769	      0.15742539	     -0.05799431	      0.19336355	     -0.02899715	     33.46562282	    -19.14757162	      6.99618682	     10.55585973	     -4.93137114	      9.46768765	     14.72851015	    -27.40069238	     -5.63624960	     -1.28428412	      6.31810279	     11.03130317	    -10.19813529	     -4.40161727	    -10.70033603	     22.48873578	    -27.22621119	    -13.64986856	      4.31986274	      5.05181433	      0.00085151	     -0.03089710	     -0.00483108	      0.01656711	     -0.01801461	     -0.00709100	      0.00433795	     -0.06697696	     -0.00355186	      0.00813160	     -0.18342114	     -0.00040652	     -0.00521656	      0.00152332	      0.00011823	      0.00005652	      0.00002261	      0.00011304	      0.00007235	      0.00021704	      0.00012208	     -0.00001204	     -0.00021445	     -0.00025734	      0.00253142	      0.00888143	      0.00617839	     -0.00828075	      0.01999394	     -0.01896421	      0.00253142	      0.00888143	      0.00617839	      0.00055777	      0.01853516	     -0.00973954	      0.00398796	      0.00493885	      0.01606465	      0.00000000	      0.00797820	      0.00000000	     -0.00725102	     -0.03350917	     -0.00657948	      0.01413577	     -0.00045129	     -0.00351914	     -0.00090101	      0.01510272	     -0.00617839	      0.00248852	      0.02179597	     -0.01802029	     -0.00604967	      0.01308617	     -0.00553480	     -0.01261421	      0.02763112	     -0.03093484	     -0.02368381	      0.01463076	     -0.00742264	     -0.01570340	      0.03192166	     -0.03865782
      0.10000000	     -0.32508239	      0.13768956	     -0.13768956	      0.32508239	     -0.06582257	      0.53195486	      0.23911005	     -0.23911005	     -0.53195486	      0.06582257	     99.02550168	     76.96614454	     -1.72832105	    -21.88018861	     28.95724015	     45.27574934	      0.16140051	     -0.04286043	      0.19772118	     -0.02143021	     34.15710790	    -18.98182175	      5.06506877	     12.95572252	     -4.65809193	      9.63329563	     13.76886977	    -25.13824929	     -5.06431692	     -1.09890964	      6.22932126	      9.58399587	     -9.12697360	     -4.17431527	    -10.84726395	     19.73384104	    -26.14893531	    -13.58099800	      3.53327759	      5.07266277	      0.00085782	     -0.03091894	     -0.00483459	      0.01655243	     -0.01806638	     -0.00688732	      0.00420463	     -0.06706317	     -0.00369720	      0.00831569	     -0.18338136	     -0.00041339	     -0.00543308	      0.00159915	      0.00010100	      0.00004231	      0.00001693	      0.00008463	      0.00005416	      0.00016249	      0.00009140	     -0.00001242	     -0.00020576	     -0.00024691	      0.00252278	      0.00885111	      0.00615730	     -0.00825249	      0.01992570	     -0.01889948	      0.00252278	      0.00885111	      0.00615730	      0.00055587	      0.01847189	     -0.00970629	      0.00397808	      0.00492199	      0.01604084	      0.00000000	      0.00792343	      0.00000000	     -0.00722627	     -0.03339478	     -0.00653403	      0.01483759	     -0.00049037	     -0.00397839	     -0.00089794	      0.01505117	     -0.00615730	      0.00248002	      0.02172157	     -0.01795878	     -0.00602902	      0.01304150	     -0.00551591	     -0.01257115	      0.02753680	     -0.03082924	     -0.02360297	      0.01458082	     -0.00739731	     -0.01564980	      0.03181270	     -0.03852586
